Coordinates
version=1
nRows=7
nColumns=63
inDegrees=yes

Units are S.I. units (second, meters, Newtons, ...)
If the header above contains a line with 'inDegrees', this indicates whether rotational values are in degrees (yes) or radians (no).

endheader
time	pelvis_tilt	pelvis_list	pelvis_rotation	pelvis_tx	pelvis_ty	pelvis_tz	hip_flexion_r	hip_adduction_r	hip_rotation_r	knee_angle_r	knee_angle_r_beta	ankle_angle_r	subtalar_angle_r	mtp_angle_r	hip_flexion_l	hip_adduction_l	hip_rotation_l	knee_angle_l	knee_angle_l_beta	ankle_angle_l	subtalar_angle_l	mtp_angle_l	L5_S1_Flex_Ext	L5_S1_Lat_Bending	L5_S1_axial_rotation	L4_L5_Flex_Ext	L4_L5_Lat_Bending	L4_L5_axial_rotation	L3_L4_Flex_Ext	L3_L4_Lat_Bending	L3_L4_axial_rotation	L2_L3_Flex_Ext	L2_L3_Lat_Bending	L2_L3_axial_rotation	L1_L2_Flex_Ext	L1_L2_Lat_Bending	L1_L2_axial_rotation	L1_T12_Flex_Ext	L1_T12_Lat_Bending	L1_T12_axial_rotation	Abs_r3	Abs_r2	Abs_r1	Abs_t1	Abs_t2	neck_flexion	neck_bending	neck_rotation	arm_flex_r	arm_add_r	arm_rot_r	elbow_flex_r	pro_sup_r	wrist_flex_r	wrist_dev_r	arm_flex_l	arm_add_l	arm_rot_l	elbow_flex_l	pro_sup_l	wrist_flex_l	wrist_dev_l
      2.05084746	      0.99439124	      1.53071005	     92.62982259	      0.28240349	      0.90071843	      0.45275952	    -10.84027420	      0.55825143	     11.45046940	      8.07801851	      0.14098802	     33.89540899	    -10.28441270	      0.00000000	    -14.31542052	     -1.88221728	     22.45022327	      1.58858500	      0.02772604	     29.88898206	    -15.78944834	      0.00000000	     -0.73539495	      0.52492507	     -1.88142368	     -1.36570197	      0.69815035	     -1.99901266	     -1.20818037	      1.27630282	     -1.99901266	     -0.84048289	      1.27630282	     -1.64624572	     -0.68288775	      1.07042721	     -1.52865674	     -0.42020468	      0.81310894	     -1.41106776	     -5.25285262	      5.93805742	    -10.46391407	      0.00000000	      0.00000000	    -15.11538283	     -8.96731024	     14.54049483	     92.49222822	     -3.07754903	     12.98161158	    124.59418531	     82.56881372	     -6.85945920	     26.73524002	     92.15221658	    -46.97926336	      0.05183170	    140.69323035	     87.37890979	     -5.84765677	     33.39330949
      2.06779661	      0.95262113	      1.60206487	     92.76232670	      0.28219242	      0.90104474	      0.45287862	    -10.90344050	      0.55602847	     11.35209558	      8.18869592	      0.14291971	     33.63261845	    -10.55947086	      0.00000000	    -14.35210901	     -1.88507767	     23.00476630	      1.52591195	      0.02663219	     29.85030417	    -16.10760025	      0.00000000	     -0.74297448	      0.51490825	     -1.84002586	     -1.37977790	      0.68482797	     -1.95502747	     -1.22063277	      1.25194792	     -1.95502747	     -0.84914553	      1.25194792	     -1.61002263	     -0.68992610	      1.05000091	     -1.49502101	     -0.42453562	      0.79759288	     -1.38001939	     -5.30699238	      5.82474512	    -10.23367181	      0.00000000	      0.00000000	    -15.13723780	     -8.75836197	     14.02272108	     92.38865531	     -3.54819757	     12.91499075	    124.96288546	     81.43463753	     -6.53102554	     27.29886427	     91.92736747	    -46.38079391	      0.09169653	    140.70037570	     87.39289917	     -5.89015185	     33.40461942
      2.08474576	      1.01909629	      1.67114769	     92.73535316	      0.28210901	      0.90132157	      0.45305226	    -10.95378211	      0.64238461	     11.55643903	      8.26347262	      0.14422480	     33.23106201	    -11.04354866	      0.00000000	    -14.38138499	     -1.95415225	     22.94798700	      1.51266581	      0.02640100	     29.97642321	    -15.92929103	      0.00000000	     -0.75291475	      0.51433671	     -1.73010524	     -1.39823799	      0.68406783	     -1.83823682	     -1.23696365	      1.25055829	     -1.83823682	     -0.86050627	      1.25055829	     -1.51384208	     -0.69915664	      1.04883543	     -1.40571051	     -0.43021549	      0.79670757	     -1.29757893	     -5.37799480	      5.81827978	     -9.62232631	      0.00000000	      0.00000000	    -15.06270662	     -8.70678087	     13.03137099	     92.33371613	     -4.29812933	     12.75859803	    125.58879786	     81.40053447	     -6.24586164	     27.50471013	     91.80287094	    -45.36875278	      0.06329032	    140.65948130	     87.46690245	     -5.21489309	     33.47100112
      2.10169492	      0.98551323	      1.76299932	     92.72561530	      0.28212319	      0.90146977	      0.45324088	    -11.03936410	      0.65494011	     12.07224354	      8.33189618	      0.14541902	     32.80577520	    -11.98260629	      0.00000000	    -14.46892990	     -1.92875637	     23.14174759	      1.47785987	      0.02579352	     29.90321046	    -16.18578390	      0.00000000	     -0.77460450	      0.50345012	     -1.66262727	     -1.43851801	      0.66958866	     -1.76654147	     -1.27259773	      1.22408863	     -1.76654147	     -0.88529548	      1.22408863	     -1.45479886	     -0.71929774	      1.02663549	     -1.35088466	     -0.44260901	      0.77984424	     -1.24697045	     -5.53292247	      5.69512849	     -9.24703408	      0.00000000	      0.00000000	    -14.81666506	     -8.80597783	     12.52841824	     92.32647383	     -4.78936497	     12.62578200	    126.18712602	     80.70462156	     -6.12613680	     27.29756140	     91.91799367	    -44.85608774	     -0.01725091	    140.66196329	     87.63617853	     -4.38123147	     33.50619818
      2.11864407	      1.06510443	      1.79753078	     92.74072668	      0.28188564	      0.90146744	      0.45353870	    -11.05300713	      0.73667641	     12.10151103	      8.36749892	      0.14604041	     32.59637178	    -12.17419905	      0.00000000	    -14.48218040	     -2.00415457	     23.06264843	      1.50314414	      0.02623481	     29.90627114	    -16.19112044	      0.00000000	     -0.79439014	      0.50864273	     -1.58555755	     -1.47526193	      0.67649483	     -1.68465490	     -1.30510356	      1.23671394	     -1.68465490	     -0.90790849	      1.23671394	     -1.38736286	     -0.73767069	      1.03722426	     -1.28826551	     -0.45391453	      0.78788759	     -1.18916816	     -5.67424934	      5.75386831	     -8.81839543	      0.00000000	      0.00000000	    -14.44024950	     -9.09420251	     11.74529811	     92.46587441	     -5.38787274	     12.49753215	    126.86762496	     80.40664007	     -6.04116743	     27.23339912	     92.01009385	    -44.26313046	     -0.19959265	    140.66142902	     87.81671797	     -3.25817718	     33.61892054
      2.13559322	      1.19777296	      1.80221403	     92.69315801	      0.28168943	      0.90142654	      0.45404876	    -11.00399903	      0.84564574	     12.00459695	      8.39852813	      0.14658197	     32.53514194	    -12.02529752	      0.00000000	    -14.45853043	     -2.10341779	     22.75716568	      1.56769306	      0.02736141	     29.90215908	    -16.10766809	      0.00000000	     -0.82071860	      0.52121714	     -1.51543434	     -1.52415652	      0.69321879	     -1.61014899	     -1.34835859	      1.26728734	     -1.61014899	     -0.93799929	      1.26728734	     -1.32600505	     -0.76211930	      1.06286598	     -1.23129040	     -0.46895861	      0.80736534	     -1.13657576	     -5.86231092	      5.89611248	     -8.42839118	      0.00000000	      0.00000000	    -14.11949771	     -9.36863207	     11.11741504	     92.66969735	     -5.92342705	     12.42182217	    127.48117924	     80.28622928	     -6.03231548	     27.26314791	     92.09861246	    -43.82986023	     -0.42536268	    140.62908263	     87.86689563	     -2.08514555	     33.74873582
      2.15254237	      1.28797522	      1.71107092	     92.68743592	      0.28149234	      0.90125240	      0.45454029	    -10.87978560	      0.92488565	     12.01730756	      8.36583523	      0.14601137	     32.49511274	    -12.07297499	      0.00000000	    -14.32462192	     -2.16131194	     22.35300325	      1.67357378	      0.02920937	     29.92062528	    -15.84443732	      0.00000000	     -0.83252378	      0.53117253	     -1.48164229	     -1.54607991	      0.70645946	     -1.57424493	     -1.36775332	      1.29149289	     -1.57424493	     -0.95149143	      1.29149289	     -1.29643700	     -0.77308158	      1.08316702	     -1.20383436	     -0.47570409	      0.82278625	     -1.11123172	     -5.94663411	      6.00872988	     -8.24044992	      0.00000000	      0.00000000	    -13.99045735	     -9.55005170	     10.73312358	     92.80610922	     -6.30325155	     12.45542927	    127.96762927	     80.27015361	     -6.18136670	     27.48922548	     92.11084367	    -43.74409140	     -0.59851652	    140.56923809	     87.80895446	     -1.10514400	     33.88113770
